<?xml version="1.0" encoding="UTF-8" standalone="no"?>
<!-- Created with Inkscape (http://www.inkscape.org/) -->

<svg
   width="43.893707mm"
   height="38.545654mm"
   viewBox="0 0 43.893708 38.545654"
   version="1.1"
   id="svg1"
   xml:space="preserve"
   inkscape:version="1.4 (86a8ad7, 2024-10-11)"
   sodipodi:docname="wastedaloha.svg"
   xmlns:inkscape="http://www.inkscape.org/namespaces/inkscape"
   xmlns:sodipodi="http://sodipodi.sourceforge.net/DTD/sodipodi-0.dtd"
   xmlns="http://www.w3.org/2000/svg"
   xmlns:svg="http://www.w3.org/2000/svg"><sodipodi:namedview
     id="namedview1"
     pagecolor="#505050"
     bordercolor="#eeeeee"
     borderopacity="1"
     inkscape:showpageshadow="0"
     inkscape:pageopacity="0"
     inkscape:pagecheckerboard="0"
     inkscape:deskcolor="#505050"
     inkscape:document-units="mm"
     inkscape:zoom="2.9825758"
     inkscape:cx="35.539751"
     inkscape:cy="63.870968"
     inkscape:window-width="1920"
     inkscape:window-height="1017"
     inkscape:window-x="-8"
     inkscape:window-y="-8"
     inkscape:window-maximized="1"
     inkscape:current-layer="layer1" /><defs
     id="defs1"><marker
       style="overflow:visible"
       id="Triangle"
       refX="0"
       refY="0"
       orient="auto-start-reverse"
       inkscape:stockid="Triangle arrow"
       markerWidth="0.5"
       markerHeight="0.5"
       viewBox="0 0 1 1"
       inkscape:isstock="true"
       inkscape:collect="always"
       preserveAspectRatio="xMidYMid"><path
         transform="scale(0.5)"
         style="fill:context-stroke;fill-rule:evenodd;stroke:context-stroke;stroke-width:1pt"
         d="M 5.77,0 -2.88,5 V -5 Z"
         id="path135" /></marker></defs><g
     inkscape:label="Layer 1"
     inkscape:groupmode="layer"
     id="layer1"
     transform="translate(-10.542632,-234.53652)"><path
       style="fill:#f5a33d;fill-opacity:1;stroke:#d20000;stroke-width:0;stroke-linejoin:miter;stroke-miterlimit:3.1;stroke-dasharray:none;stroke-opacity:1;paint-order:fill markers stroke"
       d="m 18.771921,273.08217 c 0,0 -9.946626,-5.4535 -5.456198,-16.70417 0.983373,-2.46382 15.169634,2.9068 13.086431,4.54927 -7.639263,6.02305 -3.803229,9.14481 -3.803229,9.14481 z"
       id="path41"
       sodipodi:nodetypes="csscc"
       inkscape:label="Stem" /><path
       id="path14"
       style="fill:#f5ca3d;fill-opacity:1;stroke:#000000;stroke-width:0.0499999;stroke-opacity:0"
       d="m 30.051536,236.52853 c -0.949963,-0.32296 -1.569541,0.0168 -2.849955,-0.0332 -1.238012,-0.0484 -4.105684,-1.01908 -4.730977,-0.10499 -0.363008,0.53068 -0.624814,1.10605 -0.809253,1.70431 -0.543354,-0.62571 -1.153319,-1.23177 -1.841748,-1.79689 -1.183976,-0.9719 -3.64803,-0.33532 -4.886007,-0.38361 -1.707184,-0.0666 -2.512114,-0.63231 -3.567224,0.4359 -1.055104,1.0682 -0.43918,2.05208 -0.43925,3.84711 -4.3e-5,1.30169 -0.816613,3.75447 0.07597,5.02683 0.51827,0.73878 1.075123,1.39775 1.651062,1.98845 -0.575014,0.17527 -1.129268,0.43437 -1.641244,0.80565 -0.88036,0.63844 -0.183503,3.70975 -0.183451,5.01147 6.1e-5,1.79509 -0.507856,2.29136 0.547253,4.12763 1.055104,1.83624 1.968052,1.81777 3.675228,2.9939 1.237985,0.85288 3.601067,3.33957 4.778003,3.21183 0.683207,-0.0742 1.289056,-0.24249 1.829346,-0.4757 0.188044,0.73412 0.45574,1.50085 0.827856,2.2955 0.639882,1.36648 3.534827,2.62794 4.772836,3.48073 1.707222,1.17603 2.197985,2.04872 3.905188,2.1154 1.707194,0.0667 1.655783,-0.92896 2.710945,-1.9971 0.76516,-0.77459 3.042017,-1.69079 2.876827,-3.04208 -0.09589,-0.78439 -0.278014,-1.5469 -0.519865,-2.28159 0.6911,0.27834 1.410515,0.49249 2.152324,0.61234 1.27583,0.20609 2.368062,-2.08525 3.133142,-2.85991 1.05506,-1.06826 1.866552,-1.02562 1.866552,-2.82068 0,-1.79505 -0.944827,-2.39166 -1.999877,-4.22794 -0.76509,-1.3316 -1.720787,-4.38418 -2.999817,-5.09159 -0.742605,-0.41073 -1.461407,-0.71406 -2.15129,-0.93494 0.239152,-0.56204 0.416383,-1.19654 0.502811,-1.91712 0.148623,-1.2391 -2.071355,-3.9166 -2.836519,-5.24817 -1.055159,-1.83625 -1.044567,-2.68217 -2.75177,-3.85824 -0.426798,-0.29401 -0.780436,-0.47561 -1.097091,-0.58328 z m -1.844331,8.56485 0.178283,5.05684 v 0.78031 l 0.03002,0.0698 1.198376,0.82531 4.25297,3.09979 -4.682401,0.004 -0.752409,-0.0294 -0.04647,0.0301 v 1.25522 l -0.161747,4.47005 -3.075781,-5.05001 -0.460954,-0.80236 -0.05891,-0.0516 -1.20096,-0.0469 -4.350122,-0.33947 2.786393,-3.12409 0.462504,-0.4678 0.01034,-0.0618 -0.744657,-1.29579 -2.524911,-4.66863 4.802291,3.12093 0.74259,0.51161 0.06511,0.0134 0.74259,-0.75137 z"
       sodipodi:nodetypes="ssscssssscssssscssssscssssscsssscccccccccccccccccccccccccc"
       inkscape:label="Flower" /><path
       style="display:inline;fill:#f5ca3d;fill-opacity:0;stroke:#a40007;stroke-width:5;stroke-linejoin:miter;stroke-miterlimit:3.1;stroke-dasharray:none;stroke-opacity:1;marker-end:url(#Triangle);paint-order:fill markers stroke"
       d="m 26.373656,252.08601 14.013978,-14.01396 7.771235,7.77124"
       id="path15"
       sodipodi:nodetypes="ccc"
       inkscape:label="Arrow B" /><path
       id="path31"
       style="display:inline;fill:#a40007;stroke-miterlimit:3.1;paint-order:fill markers stroke"
       d="m 40.388232,234.53763 -5.408455,5.40793 c 0.634866,1.09053 2.193427,3.03987 2.676839,4.39302 l 2.731616,-2.7311 3.885551,3.88762 3.537252,-3.53725 z m -12.125874,12.12483 -7.810376,7.80986 2.975012,0.23203 1.20096,0.047 0.05891,0.0517 0.460954,0.80254 0.469739,0.77101 4.317566,-4.31705 -0.321428,-0.23409 -1.198376,-0.82528 -0.02997,-0.0698 v -0.78031 z"
       sodipodi:nodetypes="cccccccccccccccccccc"
       inkscape:label="Arrow A" /></g></svg>
